<svg xmlns="http://www.w3.org/2000/svg" width="17.603" height="17.603" viewBox="0 0 17.603 17.603">
  <path id="add_category" d="M131.423,56.211H128.96a2.753,2.753,0,0,0-2.753,2.753v2.463a2.753,2.753,0,0,0,2.753,2.753h2.463a2.753,2.753,0,0,0,2.753-2.753V58.964a2.753,2.753,0,0,0-2.753-2.753Zm1.377,5.216a1.377,1.377,0,0,1-1.377,1.377H128.96a1.376,1.376,0,0,1-1.377-1.377V58.964a1.376,1.376,0,0,1,1.377-1.377h2.463a1.377,1.377,0,0,1,1.377,1.377Zm8.259-5.216h-2.466a2.753,2.753,0,0,0-2.753,2.753v2.463a2.753,2.753,0,0,0,2.753,2.753h2.463a2.753,2.753,0,0,0,2.753-2.753V58.964a2.753,2.753,0,0,0-2.753-2.753Zm1.377,5.216a1.377,1.377,0,0,1-1.377,1.377h-2.466a1.377,1.377,0,0,1-1.377-1.377V58.964a1.377,1.377,0,0,1,1.377-1.377h2.463a1.376,1.376,0,0,1,1.377,1.377Zm-11.012,4.419H128.96a2.753,2.753,0,0,0-2.753,2.753v2.463a2.753,2.753,0,0,0,2.753,2.753h2.463a2.753,2.753,0,0,0,2.753-2.753V68.6a2.753,2.753,0,0,0-2.753-2.753Zm1.377,5.216a1.377,1.377,0,0,1-1.377,1.377H128.96a1.376,1.376,0,0,1-1.377-1.377V68.6a1.376,1.376,0,0,1,1.377-1.377h2.463A1.377,1.377,0,0,1,132.8,68.6Zm10.262-1.231a.688.688,0,0,1-.688.688h-1.858v1.858a.688.688,0,1,1-1.377,0V70.519H137.28a.688.688,0,1,1,0-1.377h1.858V67.284a.688.688,0,1,1,1.377,0v1.858h1.858a.688.688,0,0,1,.688.688Z" transform="translate(-126.207 -56.211)" fill="#acacac"/>
</svg>
