<svg xmlns="http://www.w3.org/2000/svg" width="14.798" height="17.603" viewBox="0 0 14.798 17.603">
  <g id="district_list" transform="translate(-44.966 -646)">
    <path id="Path_2401" data-name="Path 2401" d="M184.35,137.59h5.538v.926H184.35Z" transform="translate(-137.014 512.203)" fill="#acacac" stroke="#acacac" stroke-width="1"/>
    <path id="Path_2402" data-name="Path 2402" d="M184.35,215.99h5.538v.926H184.35Z" transform="translate(-137.014 437.045)" fill="#acacac" stroke="#acacac" stroke-width="1"/>
    <path id="Path_2403" data-name="Path 2403" d="M184.35,294.39h5.538v.926H184.35Z" transform="translate(-137.014 361.888)" fill="#acacac" stroke="#acacac" stroke-width="1"/>
    <path id="Path_2404" data-name="Path 2404" d="M140.809,50.86V45.5a.464.464,0,0,0-.144-.338l-4.283-4a.464.464,0,0,0-.315-.121h-9.594a.463.463,0,0,0-.463.463V58.182a.463.463,0,0,0,.463.463h14.335V50.86Zm-4.28-8.295,2.64,2.465h-2.64Zm-9.592,15.148V41.964H135.6V45.5a.856.856,0,0,0,.463.463h3.817v4.734s0,7.02,0,7.02-5.1-.026-5.089,0Z" transform="translate(-81.045 604.958)" fill="#acacac"/>
  </g>
</svg>
