<svg xmlns="http://www.w3.org/2000/svg" width="13.002" height="17.803" viewBox="0 0 13.002 17.803">
  <path id="invoice_reports" d="M177.165,33.544a.4.4,0,0,0-.2.075l-6,4.4a.4.4,0,0,0-.163.325v10.8a.4.4,0,0,0,.131.294l1.8,1.6a.4.4,0,0,0,.569-.031l1.1-1.257,1.1,1.257h0a.4.4,0,0,0,.6,0l1.1-1.257,1.1,1.257a.4.4,0,0,0,.6,0l1.1-1.257,1.1,1.257h0a.4.4,0,0,0,.569.031l1.8-1.6a.4.4,0,0,0,.131-.294v-15.2a.4.4,0,0,0-.4-.4h-6.039Zm.444.8H182.8V48.967l-1.363,1.213-1.138-1.3a.4.4,0,0,0-.6,0l-1.1,1.257-1.1-1.257a.4.4,0,0,0-.6,0l-1.1,1.257-1.1-1.257a.4.4,0,0,0-.6,0l-1.138,1.3L171.6,48.967V38.7l7.5-1.976h0a.4.4,0,0,0,.087-.738c-.524-.281-.96-.391-1.194-.575-.214-.168-.363-.4-.388-1.069Zm-.769.356a1.942,1.942,0,0,0,.663,1.344,2.078,2.078,0,0,0,.344.194l-4.832,1.269L176.84,34.7Zm-3.276,4.845h0a.4.4,0,1,0,.038.8h7.2a.4.4,0,1,0,0-.8h-7.239Zm0,2h0a.4.4,0,1,0,.038.8h7.2a.4.4,0,1,0,0-.8h-7.239Zm0,2h0a.4.4,0,1,0,.038.8h5.2a.4.4,0,1,0,0-.8h-5.239Zm0,2h0a.4.4,0,1,0,.038.8h5.2a.4.4,0,1,0,0-.8h-5.239Z" transform="translate(-170.701 -33.444)" fill="#acacac" stroke="#acacac" stroke-width="0.2"/>
</svg>
