<svg xmlns="http://www.w3.org/2000/svg" width="14.357" height="18.003" viewBox="0 0 14.357 18.003">
  <path id="shop_list" d="M179.875,26.25H166.582a.332.332,0,0,0-.332.332V43.521a.332.332,0,0,0,.332.332h13.293a.332.332,0,0,0,.332-.332V26.582a.332.332,0,0,0-.332-.332Zm-3.793.665-.665.665H171.04l-.665-.665Zm3.461,16.274H166.915V26.915h2.521l1.231,1.232a.332.332,0,0,0,.235.1h4.652a.332.332,0,0,0,.235-.1l1.232-1.232h2.521Zm-8.972-7.8h5.317a.332.332,0,0,0,.329-.376l-.665-4.985a.332.332,0,0,0-.329-.288h-3.988a.332.332,0,0,0-.329.288l-.665,4.985a.332.332,0,0,0,.329.376Zm.955-4.985h3.406l.576,4.32h-4.558Zm3.032.665a1.329,1.329,0,1,1-2.659,0,.332.332,0,1,1,.665,0,.665.665,0,1,0,1.329,0,.332.332,0,1,1,.665,0Zm2.659,6.314a.332.332,0,0,1-.332.332h-4.652a.332.332,0,0,1,0-.665h4.652a.332.332,0,0,1,.332.332Zm-7.976,0a.332.332,0,0,1,.332-.332H170.9a.332.332,0,1,1,0,.665h-1.329A.332.332,0,0,1,169.241,37.378Zm7.976,1.662a.332.332,0,0,1-.332.332h-4.652a.332.332,0,0,1,0-.665h4.652a.332.332,0,0,1,.332.332Zm-7.976,0a.332.332,0,0,1,.332-.332H170.9a.332.332,0,1,1,0,.665h-1.329A.332.332,0,0,1,169.241,39.039Zm7.976,1.662a.332.332,0,0,1-.332.332h-4.652a.332.332,0,0,1,0-.665h4.652a.332.332,0,0,1,.332.332Zm-6.314.332h-1.329a.332.332,0,0,1,0-.665H170.9a.332.332,0,1,1,0,.665Z" transform="translate(-166.05 -26.05)" fill="#acacac" stroke="#acacac" stroke-width="0.4"/>
</svg>
