<svg xmlns="http://www.w3.org/2000/svg" width="15.091" height="17.603" viewBox="0 0 15.091 17.603">
  <g id="shop_users" transform="translate(-1441.866 1093.318)">
    <g id="Group_3380" data-name="Group 3380" transform="translate(1452.765 -1083.259)">
      <path id="Path_2445" data-name="Path 2445" d="M383.5,379.629H380.11a.4.4,0,0,1-.4-.4v-4.271a.4.4,0,0,1,.159-.321l1.694-1.285a.4.4,0,0,1,.487,0l1.694,1.285a.4.4,0,0,1,.159.321v4.271A.4.4,0,0,1,383.5,379.629Zm-2.985-.805H383.1v-3.668l-1.292-.979-1.291.979Z" transform="translate(-379.707 -372.085)" fill="#acacac"/>
      <path id="Path_2446" data-name="Path 2446" d="M402.248,356.158a.306.306,0,0,1-.306-.306v-2.839a.306.306,0,1,1,.612,0v2.839A.306.306,0,0,1,402.248,356.158Z" transform="translate(-400.152 -352.707)" fill="#acacac"/>
      <path id="Path_2447" data-name="Path 2447" d="M396.59,392.582a.8.8,0,1,1,.8-.8A.8.8,0,0,1,396.59,392.582Zm0-1.152a.35.35,0,1,0,.35.35A.351.351,0,0,0,396.59,391.431Z" transform="translate(-394.494 -387.898)" fill="#acacac"/>
    </g>
    <path id="Path_2538" data-name="Path 2538" d="M224.411,33.738a4.4,4.4,0,1,0,4.4,4.4A4.4,4.4,0,0,0,224.411,33.738Zm0,1.257a3.143,3.143,0,1,1-3.143,3.143A3.145,3.145,0,0,1,224.411,35Z" transform="translate(1226.257 -1127.056)" fill="#acacac" fill-rule="evenodd"/>
    <path id="Path_2539" data-name="Path 2539" d="M98.767,320.027h7.813a.629.629,0,1,1,0,1.257H98.139a.628.628,0,0,1-.629-.629V319.4a5.658,5.658,0,0,1,5.658-5.658h3.412a.629.629,0,1,1,0,1.257h-3.412a4.4,4.4,0,0,0-4.4,4.4Z" transform="translate(1344.356 -1396.999)" fill="#acacac" fill-rule="evenodd"/>
  </g>
</svg>
