<svg xmlns="http://www.w3.org/2000/svg" width="20.962" height="17.603" viewBox="0 0 20.962 17.603">
  <g id="update_parent" transform="translate(-4431.252 1469)">
    <path id="Path_2494" data-name="Path 2494" d="M99.281,80.955l2.964,1.565a.912.912,0,0,0,.095.043l.005,0h0a.909.909,0,0,0,.148.042l.038.007a.924.924,0,0,0,.142.013h.007a.933.933,0,0,0,.171-.018l.044-.01a.93.93,0,0,0,.127-.04l.041-.016a.926.926,0,0,0,.149-.083l.023-.018a.915.915,0,0,0,.113-.1c.006-.006.013-.01.018-.016s.01-.014.016-.021c.02-.023.039-.047.057-.072s.024-.033.034-.05.027-.048.04-.073.021-.041.03-.062.007-.013.009-.02l1.105-2.866a.933.933,0,1,0-1.741-.672l-.29.752a6.924,6.924,0,0,1,10.4-7.6.933.933,0,1,0,1-1.577A8.795,8.795,0,0,0,100.8,79.645l-.644-.34a.933.933,0,0,0-.872,1.65Z" transform="translate(4332.469 -1537.706)" fill="#acacac"/>
    <path id="Path_2495" data-name="Path 2495" d="M237.939,157.161c-.012-.005-.023-.013-.036-.018l-.019-.005a.918.918,0,0,0-.14-.038l-.028-.007a.934.934,0,0,0-.169-.011c-.016,0-.031,0-.047,0a.925.925,0,0,0-.12.016l-.056.014a.934.934,0,0,0-.105.035l-.054.024a.924.924,0,0,0-.1.055c-.016.01-.033.02-.048.031a.918.918,0,0,0-.091.077c-.013.012-.026.022-.038.035l-.008.007a.926.926,0,0,0-.1.126c0,.007-.007.014-.011.021a.913.913,0,0,0-.068.134c0,.006-.006.01-.008.016l-1.105,2.866a.933.933,0,1,0,1.741.672l.29-.752a6.923,6.923,0,0,1-10.4,7.6.933.933,0,0,0-1,1.577,8.8,8.8,0,0,0,13.224-9.58l.645.34a.933.933,0,1,0,.872-1.65L238,157.188c-.021-.011-.043-.018-.064-.028Z" transform="translate(4210.749 -1622.4)" fill="#acacac"/>
  </g>
</svg>
