<svg xmlns="http://www.w3.org/2000/svg" width="18.036" height="17.603" viewBox="0 0 18.036 17.603">
  <g id="user_list" transform="translate(-1185 260.667)">
    <path id="Path_2533" data-name="Path 2533" d="M224.4,33.738a4.392,4.392,0,1,0,4.392,4.392A4.394,4.394,0,0,0,224.4,33.738Zm0,1.255a3.137,3.137,0,1,1-3.137,3.137A3.139,3.139,0,0,1,224.4,34.993Z" transform="translate(969.382 -294.405)" fill="#acacac" fill-rule="evenodd"/>
    <path id="Path_2534" data-name="Path 2534" d="M98.765,320.014h7.8a.627.627,0,1,1,0,1.255H98.137a.627.627,0,0,1-.627-.627v-1.255a5.647,5.647,0,0,1,5.647-5.647h3.406a.627.627,0,0,1,0,1.255h-3.406a4.392,4.392,0,0,0-4.392,4.392Z" transform="translate(1087.49 -564.367)" fill="#acacac" fill-rule="evenodd"/>
    <path id="Path_2535" data-name="Path 2535" d="M420.627,316.255h5.219a.627.627,0,0,0,0-1.255h-5.219a.627.627,0,0,0,0,1.255Z" transform="translate(776.563 -565.582)" fill="#acacac" fill-rule="evenodd"/>
    <path id="Path_2536" data-name="Path 2536" d="M420.627,403.615h5.219a.627.627,0,0,0,0-1.255h-5.219a.627.627,0,0,0,0,1.255Z" transform="translate(776.563 -649.81)" fill="#acacac" fill-rule="evenodd"/>
    <path id="Path_2537" data-name="Path 2537" d="M420.627,490.955h5.219a.627.627,0,0,0,0-1.255h-5.219a.627.627,0,0,0,0,1.255Z" transform="translate(776.563 -734.019)" fill="#acacac" fill-rule="evenodd"/>
  </g>
</svg>
