<svg xmlns="http://www.w3.org/2000/svg" width="29.551" height="29.561" viewBox="0 0 29.551 29.561">
  <g id="monthly_joined" transform="translate(-293 -196)">
    <path id="Path_2588" data-name="Path 2588" d="M107.581,49.875V37.5h12.372a.237.237,0,0,0,.237-.237,12.845,12.845,0,1,0-12.845,12.845.236.236,0,0,0,.237-.236Zm12.133-12.846H107.581V24.9A12.385,12.385,0,0,1,119.714,37.029ZM107.108,24.9V37.029H94.979A12.382,12.382,0,0,1,107.108,24.9ZM94.978,37.5h12.13V49.636A12.385,12.385,0,0,1,94.978,37.5Z" transform="translate(416.684 249.615) rotate(180)" fill="#fff"/>
    <path id="Path_2588_-_Outline" data-name="Path 2588 - Outline" d="M102.627,45.675h0a13.127,13.127,0,0,1,0-26.254h0a13.142,13.142,0,0,1,13.127,13.127.519.519,0,0,1-.518.518h-12.09v12.09a.518.518,0,0,1-.517.518ZM90.55,33.065a12.045,12.045,0,0,0,11.558,11.562V33.065Zm11.558-12.594A12.043,12.043,0,0,0,90.551,32.029h11.557Zm1.037,11.558h11.561a12.045,12.045,0,0,0-11.561-11.557Z" transform="translate(411.966 244.897) rotate(180)" fill="#fff"/>
    <path id="Path_2588_-_Outline-2" data-name="Path 2588 - Outline" d="M105.93,48.78h0a12.93,12.93,0,1,1,0-25.859h0a12.944,12.944,0,0,1,12.93,12.93.321.321,0,0,1-.321.321H106.25V48.46a.321.321,0,0,1-.32.321Zm0-25.69a12.761,12.761,0,1,0,0,25.521h0a.152.152,0,0,0,.151-.145V36h12.457a.152.152,0,0,0,.152-.152A12.775,12.775,0,0,0,105.929,23.09Zm-.152,25.217-.086,0A12.449,12.449,0,0,1,93.478,36.088l0-.086h12.3ZM93.649,36.171a12.244,12.244,0,0,0,11.959,11.963V36.171Zm-.086-.473h-.086l0-.086A12.444,12.444,0,0,1,105.691,23.4l.086,0V35.7H93.563ZM105.608,23.57A12.241,12.241,0,0,0,93.65,35.529h11.958ZM118.385,35.7h-12.3V23.4l.086,0a12.444,12.444,0,0,1,12.216,12.212Zm-12.135-.169h11.962A12.243,12.243,0,0,0,106.25,23.571Z" transform="translate(415.268 248.2) rotate(180)" fill="#fff"/>
    <path id="Path_2588_-_Outline_-_Outline" data-name="Path 2588 - Outline - Outline" d="M101.211,44.344h0a13.211,13.211,0,1,1,13.212-13.211.6.6,0,0,1-.6.6H101.813V43.741a.6.6,0,0,1-.6.6ZM89.223,31.734a11.994,11.994,0,0,0,11.385,11.389V31.734Zm11.385-12.59A11.991,11.991,0,0,0,89.224,30.529h11.384Zm1.206,11.385H113.2a11.993,11.993,0,0,0-11.388-11.384Z" transform="translate(410.55 243.482) rotate(180)" fill="#fff"/>
    <path id="Path_2589" data-name="Path 2589" d="M369.419,299.823l.335-.335-5.466-5.466a11.526,11.526,0,0,0,3.237-8.037.237.237,0,0,0-.237-.237H355.917a.237.237,0,0,0-.237.237v11.372a.237.237,0,0,0,.237.237,11.525,11.525,0,0,0,8.037-3.237Zm-13.265-2.705v-10.9h10.9a11.054,11.054,0,0,1-3.1,7.466l-3.2-3.2h3.83v-.473h-4.4a.237.237,0,0,0-.237.237v4.4h.473v-3.829l3.2,3.2a11.05,11.05,0,0,1-7.465,3.1Z" transform="translate(663.151 496.221) rotate(180)" fill="#fff"/>
    <path id="Path_2589_-_Outline" data-name="Path 2589 - Outline" d="M364.7,295.5l-5.472-5.473a11.821,11.821,0,0,1-8.03,3.126.519.519,0,0,1-.518-.518V281.267a.519.519,0,0,1,.518-.518H362.57a.519.519,0,0,1,.518.518,11.824,11.824,0,0,1-3.126,8.031l5.472,5.472Zm-12.984-13.718v10.323a10.8,10.8,0,0,0,6.778-2.811l-2.517-2.517v3.431h-1.036v-4.683a.519.519,0,0,1,.518-.518h4.683v1.036h-3.431l2.517,2.517a10.806,10.806,0,0,0,2.811-6.779Z" transform="translate(658.433 491.503) rotate(180)" fill="#fff"/>
  </g>
</svg>
