<svg xmlns="http://www.w3.org/2000/svg" width="29.976" height="29.976" viewBox="0 0 29.976 29.976">
  <g id="total_renewed" transform="translate(-545.25 -458.25)">
    <g id="Group_3447" data-name="Group 3447" transform="translate(-1.462 -0.063)">
      <rect id="Rectangle_577" data-name="Rectangle 577" width="1.103" height="1.103" transform="translate(557.064 472.229)" fill="#fff"/>
      <rect id="Rectangle_578" data-name="Rectangle 578" width="1.103" height="1.103" transform="translate(561.064 472.229)" fill="#fff"/>
      <rect id="Rectangle_579" data-name="Rectangle 579" width="1.103" height="1.103" transform="translate(565.064 472.229)" fill="#fff"/>
      <path id="Path_2634" data-name="Path 2634" d="M157.214,235.37h-.891a.431.431,0,0,0-.43.43v.835a.431.431,0,0,0,.43.43h.891a.431.431,0,0,0,.43-.43V235.8a.431.431,0,0,0-.43-.43Zm-.891,1.266V235.8h.891v.835Z" transform="translate(400.974 236.565)" fill="#fff"/>
      <path id="Path_2634_-_Outline" data-name="Path 2634 - Outline" d="M155.861,234.87h.891a.469.469,0,0,1,.469.469v.835a.469.469,0,0,1-.469.469h-.891a.469.469,0,0,1-.469-.469v-.835a.469.469,0,0,1,.469-.469Zm.891,1.7a.393.393,0,0,0,.392-.392v-.835a.393.393,0,0,0-.392-.392h-.891a.393.393,0,0,0-.392.392v.835a.393.393,0,0,0,.392.392Zm-.93-1.266h.968v.912h-.968Zm.891.076H155.9v.759h.815Z" transform="translate(401.436 237.027)" fill="#fff"/>
      <path id="Path_2637" data-name="Path 2637" d="M157.214,340.75h-.891a.431.431,0,0,0-.43.43v.835a.431.431,0,0,0,.43.43h.891a.431.431,0,0,0,.43-.43v-.835a.431.431,0,0,0-.43-.43Zm-.891,1.266v-.835h.891v.835Z" transform="translate(400.974 133.777)" fill="#fff"/>
      <path id="Path_2637_-_Outline" data-name="Path 2637 - Outline" d="M155.861,340.25h.891a.469.469,0,0,1,.469.469v.835a.469.469,0,0,1-.469.469h-.891a.469.469,0,0,1-.469-.469v-.835a.469.469,0,0,1,.469-.469Zm.891,1.7a.393.393,0,0,0,.392-.392v-.835a.393.393,0,0,0-.392-.392h-.891a.393.393,0,0,0-.392.392v.835a.393.393,0,0,0,.392.392Zm-.93-1.266h.968v.912h-.968Zm.891.076H155.9v.759h.815Z" transform="translate(401.436 134.239)" fill="#fff"/>
      <path id="Path_2633" data-name="Path 2633" d="M116.232,85.2h-1.025v-.223a.834.834,0,0,0-.428-.7.844.844,0,0,0-.822,0,.834.834,0,0,0-.428.7V85.2h-1.622v-.223a.834.834,0,0,0-.428-.7.844.844,0,0,0-.822,0,.834.834,0,0,0-.428.7V85.2h-1.622v-.223a.8.8,0,0,0-.237-.568.84.84,0,0,0-1.441.568V85.2H105.9a.9.9,0,0,0-.636.262A.892.892,0,0,0,105,86.1v6.321a.892.892,0,0,0,.264.632.9.9,0,0,0,.636.262h10.33a.9.9,0,0,0,.636-.262.893.893,0,0,0,.264-.632V86.1a.893.893,0,0,0-.264-.632.9.9,0,0,0-.636-.262Zm-2.27-.223a.407.407,0,0,1,.812,0V85.8a.382.382,0,0,1-.134.284.387.387,0,0,1-.3.089.378.378,0,0,1-.266-.109.373.373,0,0,1-.11-.264Zm-2.925-.373a.386.386,0,0,1,.3.089.382.382,0,0,1,.134.284V85.8a.373.373,0,0,1-.11.264.378.378,0,0,1-.266.109.386.386,0,0,1-.3-.089.381.381,0,0,1-.134-.284v-.827a.373.373,0,0,1,.11-.264.377.377,0,0,1,.265-.109Zm-3.676.373a.407.407,0,0,1,.812,0V85.8a.381.381,0,0,1-.134.284.387.387,0,0,1-.3.089.377.377,0,0,1-.265-.109.373.373,0,0,1-.11-.264Zm9.338,7.438a.463.463,0,0,1-.137.328.469.469,0,0,1-.33.136H105.9a.469.469,0,0,1-.33-.136.463.463,0,0,1-.137-.328V86.1a.463.463,0,0,1,.137-.328.468.468,0,0,1,.33-.136h1.025a.841.841,0,0,0,.193.681.853.853,0,0,0,1.293,0,.841.841,0,0,0,.193-.681h1.622a.845.845,0,1,0,1.679.173v-.173h1.622a.83.83,0,0,0,.178.673.841.841,0,0,0,.63.3.818.818,0,0,0,.61-.215.807.807,0,0,0,.26-.589v-.173h1.025a.469.469,0,0,1,.33.136.463.463,0,0,1,.137.328Z" transform="translate(450.613 384.043)" fill="#fff"/>
      <path id="Path_2633_-_Outline" data-name="Path 2633 - Outline" d="M105.894,82.172l.06,0a.961.961,0,0,1,.883.59.948.948,0,0,1,.074.366V83.2h1.317v-.076a.986.986,0,0,1,.506-.825.995.995,0,0,1,1.332.346.986.986,0,0,1,.145.479V83.2h1.317v-.076a.986.986,0,0,1,.506-.825.995.995,0,0,1,1.332.347.985.985,0,0,1,.145.479V83.2h.873a1.056,1.056,0,0,1,.743.306,1.045,1.045,0,0,1,.309.74v6.321a1.045,1.045,0,0,1-.309.74,1.057,1.057,0,0,1-.743.306h-10.33a1.056,1.056,0,0,1-.743-.307,1.045,1.045,0,0,1-.309-.74V84.248a1.045,1.045,0,0,1,.309-.74,1.056,1.056,0,0,1,.743-.306h.873V83.13a.965.965,0,0,1,.967-.957Zm2.639,1.334h-1.927V83.13a.646.646,0,0,0-.192-.46.655.655,0,0,0-.464-.191h-.01l-.045,0a.66.66,0,0,0-.662.654v.375h-1.177a.746.746,0,0,0-.528.218.735.735,0,0,0-.219.524v6.321a.735.735,0,0,0,.219.524.746.746,0,0,0,.529.218h10.33a.747.747,0,0,0,.529-.218.736.736,0,0,0,.219-.524V84.248a.735.735,0,0,0-.219-.524.746.746,0,0,0-.525-.218h-1.181v-.373a.686.686,0,0,0-.35-.567.692.692,0,0,0-.674,0,.686.686,0,0,0-.35.567v.373h-1.927v-.373a.686.686,0,0,0-.35-.567.688.688,0,0,0-1.024.567Zm.708-.9a.537.537,0,0,1,.537.527v.829a.527.527,0,0,1-.518.526.539.539,0,0,1-.412-.126.534.534,0,0,1-.187-.4V83.13a.527.527,0,0,1,.518-.526A.543.543,0,0,1,109.24,82.6Zm.232.531a.23.23,0,0,0-.08-.17.234.234,0,0,0-.152-.056l-.031,0h-.02a.223.223,0,0,0-.158.065.219.219,0,0,0-.065.156v.825a.229.229,0,0,0,.08.17.234.234,0,0,0,.152.056l.031,0h.02a.224.224,0,0,0,.158-.065.219.219,0,0,0,.065-.156Zm-3.554-.527a.585.585,0,0,1,.414.162.5.5,0,0,1,.145.364v.829a.536.536,0,0,1-.537.527.543.543,0,0,1-.062,0,.527.527,0,0,1-.518-.526V83.13a.5.5,0,0,1,.145-.364A.585.585,0,0,1,105.919,82.6Zm.253,1.351V83.13a.2.2,0,0,0-.056-.148.306.306,0,0,0-.4,0,.2.2,0,0,0-.056.148v.827a.219.219,0,0,0,.065.156.223.223,0,0,0,.158.065h.02l.031,0a.234.234,0,0,0,.152-.056A.229.229,0,0,0,106.172,83.956ZM112.52,82.6a.593.593,0,0,1,.376.128.5.5,0,0,1,.183.4v.829a.536.536,0,0,1-.537.527.541.541,0,0,1-.062,0,.527.527,0,0,1-.518-.526V83.13a.5.5,0,0,1,.183-.4A.593.593,0,0,1,112.52,82.6Zm.253,1.351V83.13a.2.2,0,0,0-.071-.162.313.313,0,0,0-.366,0,.2.2,0,0,0-.071.162v.827a.219.219,0,0,0,.065.156.224.224,0,0,0,.158.065h.02l.031,0a.234.234,0,0,0,.152-.056A.23.23,0,0,0,112.774,83.956Zm.433-.325h1.177a.618.618,0,0,1,.619.616v6.321a.618.618,0,0,1-.619.616h-10.33a.618.618,0,0,1-.437-.18.612.612,0,0,1-.182-.436V84.247a.618.618,0,0,1,.619-.616h1.025v.152l.15.024a.687.687,0,0,0,.158.558.7.7,0,0,0,1.062,0,.688.688,0,0,0,.158-.558l-.028-.177h1.972l-.02.17a.717.717,0,0,0,.158.577.732.732,0,0,0,.543.232.652.652,0,0,0,.674-.658v-.321h1.927V83.8l0,.013a.677.677,0,0,0,.146.55.688.688,0,0,0,.516.249h.007l.045,0a.66.66,0,0,0,.662-.654Zm1.177,7.248a.315.315,0,0,0,.223-.092.309.309,0,0,0,.092-.22v-6.32a.313.313,0,0,0-.314-.311h-.872v.022a.965.965,0,0,1-.967.957l-.062,0a.993.993,0,0,1-.741-.359.982.982,0,0,1-.226-.618h-1.3v.03a.956.956,0,0,1-.979.949,1.084,1.084,0,0,1-.417-.084.958.958,0,0,1-.6-.9h-1.3a.992.992,0,0,1-.24.628,1.006,1.006,0,0,1-1.524,0,.992.992,0,0,1-.24-.628h-.862a.314.314,0,0,0-.222.092.308.308,0,0,0-.092.22v6.321a.308.308,0,0,0,.092.22.315.315,0,0,0,.223.092h10.33Z" transform="translate(452.46 385.891)" fill="#fff"/>
      <path id="Path_2635" data-name="Path 2635" d="M315.7,235.37H314.8a.431.431,0,0,0-.43.43v.835a.431.431,0,0,0,.43.43h.892a.431.431,0,0,0,.43-.43V235.8a.431.431,0,0,0-.43-.43Zm-.892,1.266V235.8h.892v.835Z" transform="translate(246.429 236.565)" fill="#fff"/>
      <path id="Path_2635_-_Outline" data-name="Path 2635 - Outline" d="M314.343,234.87h.892a.469.469,0,0,1,.469.469v.835a.469.469,0,0,1-.469.469h-.892a.469.469,0,0,1-.469-.469v-.835a.469.469,0,0,1,.469-.469Zm.892,1.7a.393.393,0,0,0,.392-.392v-.835a.393.393,0,0,0-.392-.392h-.892a.393.393,0,0,0-.392.392v.835a.393.393,0,0,0,.392.392Zm-.93-1.266h.968v.912H314.3Zm.892.076h-.815v.759h.815Z" transform="translate(246.891 237.027)" fill="#fff"/>
      <path id="Path_2636" data-name="Path 2636" d="M474.194,235.37H473.3a.431.431,0,0,0-.43.43v.835a.431.431,0,0,0,.43.43h.892a.431.431,0,0,0,.43-.43V235.8a.431.431,0,0,0-.431-.43Zm-.891,1.266V235.8h.891v.835Z" transform="translate(91.868 236.565)" fill="#fff"/>
      <path id="Path_2636_-_Outline" data-name="Path 2636 - Outline" d="M472.841,234.87h.891a.469.469,0,0,1,.469.469v.835a.469.469,0,0,1-.469.469h-.892a.469.469,0,0,1-.469-.469v-.835a.469.469,0,0,1,.469-.469Zm.892,1.7a.393.393,0,0,0,.392-.392v-.835a.4.4,0,0,0-.115-.277.39.39,0,0,0-.277-.115h-.891a.4.4,0,0,0-.277.115.39.39,0,0,0-.115.277v.835a.393.393,0,0,0,.392.392Zm-.93-1.266h.968v.912H472.8Zm.891.076h-.815v.759h.815Z" transform="translate(92.33 237.027)" fill="#fff"/>
      <path id="Path_2638" data-name="Path 2638" d="M315.7,340.75H314.8a.431.431,0,0,0-.43.43v.835a.431.431,0,0,0,.43.43h.892a.431.431,0,0,0,.43-.43v-.835a.431.431,0,0,0-.43-.43Zm-.892,1.266v-.835h.892v.835Z" transform="translate(246.429 133.777)" fill="#fff"/>
      <path id="Path_2638_-_Outline" data-name="Path 2638 - Outline" d="M314.343,340.25h.892a.469.469,0,0,1,.469.469v.835a.469.469,0,0,1-.469.469h-.892a.469.469,0,0,1-.469-.469v-.835a.469.469,0,0,1,.469-.469Zm.892,1.7a.393.393,0,0,0,.392-.392v-.835a.393.393,0,0,0-.392-.392h-.892a.393.393,0,0,0-.392.392v.835a.393.393,0,0,0,.392.392Zm-.93-1.266h.968v.912H314.3Zm.892.076h-.815v.759h.815Z" transform="translate(246.891 134.239)" fill="#fff"/>
      <path id="Path_2639" data-name="Path 2639" d="M474.194,340.75H473.3a.431.431,0,0,0-.43.43v.835a.431.431,0,0,0,.43.43h.892a.431.431,0,0,0,.43-.43v-.835a.431.431,0,0,0-.431-.43Zm-.891,1.266v-.835h.891v.835Z" transform="translate(91.868 133.777)" fill="#fff"/>
      <path id="Path_2639_-_Outline" data-name="Path 2639 - Outline" d="M472.841,340.25h.891a.469.469,0,0,1,.469.469v.835a.469.469,0,0,1-.469.469h-.892a.469.469,0,0,1-.469-.469v-.835a.469.469,0,0,1,.469-.469Zm.892,1.7a.4.4,0,0,0,.277-.115.391.391,0,0,0,.115-.277v-.835a.393.393,0,0,0-.392-.392h-.891a.393.393,0,0,0-.392.392v.835a.393.393,0,0,0,.392.392Zm-.93-1.266h.968v.912H472.8Zm.891.076h-.815v.759h.815Z" transform="translate(92.33 134.239)" fill="#fff"/>
      <rect id="Rectangle_580" data-name="Rectangle 580" width="1.5" height="1" transform="translate(557 474.78)" fill="#fff"/>
      <rect id="Rectangle_581" data-name="Rectangle 581" width="1.5" height="1" transform="translate(560.866 474.78)" fill="#fff"/>
      <rect id="Rectangle_582" data-name="Rectangle 582" width="1.5" height="1" transform="translate(564.866 474.78)" fill="#fff"/>
    </g>
    <path id="Path_2717" data-name="Path 2717" d="M98.032,34.192a.474.474,0,0,1,.423.847,14.749,14.749,0,1,1,4.865-3.918l1.012-.227a.474.474,0,1,1,.208.925l-2.426.544a.476.476,0,0,1-.609-.492l.2-2.47a.475.475,0,1,1,.947.074l-.086,1.075a13.756,13.756,0,1,0-4.532,3.641Z" transform="translate(468.38 451.38)" fill="#fff" stroke="#fff" stroke-width="0.5" fill-rule="evenodd"/>
  </g>
</svg>
