<svg xmlns="http://www.w3.org/2000/svg" width="30.364" height="29.751" viewBox="0 0 30.364 29.751">
  <g id="total_joined" transform="translate(-1802.8 105)">
    <path id="Path_2589_-_Outline" data-name="Path 2589 - Outline" d="M10.682,11.484,4.693,5.494c-.007.007.087-.079.8-.8l5.989,5.989ZM4.692,5.494,1.135,1.937V5.692H0V.567A.568.568,0,0,1,.567,0H5.693V1.134H1.937L5.495,4.692S5.377,4.815,4.692,5.494Z" transform="translate(1821.681 -93.517) rotate(-90)" fill="#fff"/>
    <path id="Ellipse_7" data-name="Ellipse 7" d="M14.228,1.313A12.915,12.915,0,0,0,5.1,23.36,12.915,12.915,0,1,0,23.36,5.1a12.83,12.83,0,0,0-9.132-3.783m0-1.313A14.228,14.228,0,1,1,0,14.228,14.228,14.228,0,0,1,14.228,0Z" transform="translate(1803 -103.906)" fill="#fff" stroke="#fff" stroke-width="0.4"/>
  </g>
</svg>
