<svg xmlns="http://www.w3.org/2000/svg" width="28.291" height="29.561" viewBox="0 0 28.291 29.561">
  <g id="wallet" transform="translate(-1607.07 840)">
    <path id="Path_2718" data-name="Path 2718" d="M136.265,84.684H117.227a4.63,4.63,0,0,0-4.626,4.625v20.31a4.631,4.631,0,0,0,4.626,4.626h19.038a4.632,4.632,0,0,0,4.627-4.628V89.311a4.632,4.632,0,0,0-4.627-4.627Zm0,1.271a3.36,3.36,0,0,1,3.356,3.356V92.78h-3V89.309a4.608,4.608,0,0,0-1.449-3.353Zm3.356,18.921H130.8a3.659,3.659,0,0,1-3.655-3.655V97.707a3.659,3.659,0,0,1,3.655-3.655h8.817Zm-25.748,4.743V89.309a3.358,3.358,0,0,1,3.355-3.354h14.785a3.358,3.358,0,0,1,3.338,3.353v3.471H130.8a4.932,4.932,0,0,0-4.926,4.927v3.515a4.932,4.932,0,0,0,4.926,4.926h4.546v3.471a3.358,3.358,0,0,1-3.338,3.353H117.227a3.358,3.358,0,0,1-3.355-3.353Zm22.393,3.354h-1.094a4.607,4.607,0,0,0,1.449-3.353v-3.471h3v3.469a3.36,3.36,0,0,1-3.356,3.356Z" transform="translate(1494.469 -924.684)" fill="#fffffe"/>
    <path id="Path_2719" data-name="Path 2719" d="M466.567,251.881a2.51,2.51,0,1,0-1.772-.735A2.509,2.509,0,0,0,466.567,251.881Zm0-3.743h0a1.238,1.238,0,1,1-.874.362,1.237,1.237,0,0,1,.874-.362Z" transform="translate(1161.287 -1074.593)" fill="#fffffe"/>
  </g>
</svg>
