<svg xmlns="http://www.w3.org/2000/svg" width="19.536" height="17.603" viewBox="0 0 19.536 17.603">
  <g id="give_help_icon" transform="translate(-962.419 -132)">
    <path id="Path_2344" data-name="Path 2344" d="M162.705,296.28a1.941,1.941,0,0,0-1.728-.3c-1.277.3-4.058.827-5.786,1.2a1.847,1.847,0,0,0,.075-1.277,2.021,2.021,0,0,0-.977-1.352l-2.7-1.728-.075-.075a7,7,0,0,0-6.237.3l-1.352.9v7.138l1.728-.451a1.466,1.466,0,0,1,.977.075l5.41,2.4a2.313,2.313,0,0,0,.977.225,3.764,3.764,0,0,0,.9-.15l8.266-3.456a1.987,1.987,0,0,0,1.277-1.878,2.116,2.116,0,0,0-.752-1.578Zm-1.052,2.029-8.34,3.456a1.044,1.044,0,0,1-.676,0l-5.41-2.4a2.719,2.719,0,0,0-1.878-.15l-1.428.3v-3.832L146.1,294.4a5.425,5.425,0,0,1,4.809-.3l2.63,1.653a.689.689,0,0,1,.3.451.639.639,0,0,1-.9.751l-1.878-.977a.723.723,0,1,0-.676,1.277l3.005,1.5c.075,0,.15.075.225.075.376.075,6.988-1.277,7.815-1.5.15-.075.3,0,.451,0a.574.574,0,0,1,.15.376c-.075.451-.226.526-.376.6Z" transform="translate(818.499 -153.74)" fill="#acacac"/>
    <path id="Path_2345" data-name="Path 2345" d="M.145,4.608l2.3,2.109a.494.494,0,0,0,.7,0L5.512,4.608a.494.494,0,0,0-.7-.7L3.291,5.174V.494a.494.494,0,1,0-.989,0v4.68L.844,3.909a.494.494,0,0,0-.7.7Z" transform="translate(978.881 138.907) rotate(180)" fill="#acacac"/>
    <path id="Path_2345_-_Outline" data-name="Path 2345 - Outline" d="M2.841,6.951a.535.535,0,0,1-.38-.157L.172,4.7h0L.158,4.684a.539.539,0,0,1,.761-.763L2.3,5.121V.539a.539.539,0,1,1,1.078,0V5.124l1.447-1.2a.539.539,0,0,1,.761.764l0,0L3.222,6.794A.535.535,0,0,1,2.841,6.951ZM.218,4.619h0l2.3,2.111a.45.45,0,0,0,.636,0l0,0L5.526,4.62a.45.45,0,0,0-.637-.635l0,0L3.291,5.314V.539a.45.45,0,1,0-.9,0V5.316L.857,3.985a.45.45,0,0,0-.639.634Z" transform="translate(978.925 138.951) rotate(180)" fill="#acacac"/>
  </g>
</svg>
