<svg xmlns="http://www.w3.org/2000/svg" width="14.895" height="17.603" viewBox="0 0 14.895 17.603">
  <g id="profile_icon" transform="translate(-3982.732 725.911)">
    <path id="Path_2318" data-name="Path 2318" d="M265.649,111.295a4.745,4.745,0,1,0-3.35-1.39A4.739,4.739,0,0,0,265.649,111.295Zm0-8.125a3.389,3.389,0,1,1-2.393.993A3.385,3.385,0,0,1,265.649,103.17Z" transform="translate(3724.53 -827.727)" fill="#acacac"/>
    <path id="Path_2319" data-name="Path 2319" d="M221.042,305.45h-7.18A3.86,3.86,0,0,0,210,309.309v2.234a.677.677,0,0,0,.677.677h13.541a.677.677,0,0,0,.677-.677v-2.234a3.859,3.859,0,0,0-3.856-3.859Zm2.5,5.416H211.357v-1.557a2.505,2.505,0,0,1,2.505-2.505h7.184a2.505,2.505,0,0,1,2.5,2.505Z" transform="translate(3772.729 -1020.528)" fill="#acacac"/>
  </g>
</svg>
